<?xml version="1.0" encoding="UTF-8" standalone="no"?>
<svg
   t="1684751999442"
   class="icon"
   viewBox="0 0 1024 1024"
   version="1.1"
   p-id="31763"
   data-spm-anchor-id="a313x.7781069.0.i0"
   width="200"
   height="200"
   id="svg408"
   sodipodi:docname="-f8XGlY6kT5IrjJT6.svg"
   xmlns:inkscape="http://www.inkscape.org/namespaces/inkscape"
   xmlns:sodipodi="http://sodipodi.sourceforge.net/DTD/sodipodi-0.dtd"
   xmlns="http://www.w3.org/2000/svg"
   xmlns:svg="http://www.w3.org/2000/svg">
  <defs
     id="defs412" />
  <sodipodi:namedview
     id="namedview410"
     pagecolor="#ffffff"
     bordercolor="#000000"
     borderopacity="0.25"
     inkscape:showpageshadow="2"
     inkscape:pageopacity="0.0"
     inkscape:pagecheckerboard="0"
     inkscape:deskcolor="#d1d1d1" />
  <path
     d="M119.9 183.6c33 0 60-27 60-60s-27-60-60-60-60 27-60 60c0 33.1 27 60 60 60z"
     fill="#5100A1"
     p-id="31764"
     id="path2" />
  <path
     d="M121.5 135.9m-60 0a60 60 0 1 0 120 0 60 60 0 1 0-120 0Z"
     fill="#5102A2"
     p-id="31765"
     id="path4" />
  <path
     d="M123 148.2m-60 0a60 60 0 1 0 120 0 60 60 0 1 0-120 0Z"
     fill="#5105A3"
     p-id="31766"
     id="path6" />
  <path
     d="M124.5 160.5m-60 0a60 60 0 1 0 120 0 60 60 0 1 0-120 0Z"
     fill="#5107A4"
     p-id="31767"
     id="path8" />
  <path
     d="M126 172.8m-60 0a60 60 0 1 0 120 0 60 60 0 1 0-120 0Z"
     fill="#510AA5"
     p-id="31768"
     id="path10" />
  <path
     d="M127.5 185.1m-60 0a60 60 0 1 0 120 0 60 60 0 1 0-120 0Z"
     fill="#510CA6"
     p-id="31769"
     id="path12" />
  <path
     d="M129 197.4m-60 0a60 60 0 1 0 120 0 60 60 0 1 0-120 0Z"
     fill="#510FA7"
     p-id="31770"
     id="path14" />
  <path
     d="M130.5 209.7m-60 0a60 60 0 1 0 120 0 60 60 0 1 0-120 0Z"
     fill="#5211A8"
     p-id="31771"
     id="path16" />
  <path
     d="M132.1 222m-60 0a60 60 0 1 0 120 0 60 60 0 1 0-120 0Z"
     fill="#5214A8"
     p-id="31772"
     id="path18" />
  <path
     d="M133.6 234.3m-60 0a60 60 0 1 0 120 0 60 60 0 1 0-120 0Z"
     fill="#5216A9"
     p-id="31773"
     id="path20" />
  <path
     d="M135.1 246.6m-60 0a60 60 0 1 0 120 0 60 60 0 1 0-120 0Z"
     fill="#5219AA"
     p-id="31774"
     id="path22" />
  <path
     d="M136.6 258.9m-60 0a60 60 0 1 0 120 0 60 60 0 1 0-120 0Z"
     fill="#521BAB"
     p-id="31775"
     id="path24" />
  <path
     d="M138.1 271.2m-60 0a60 60 0 1 0 120 0 60 60 0 1 0-120 0Z"
     fill="#521EAC"
     p-id="31776"
     id="path26" />
  <path
     d="M139.6 283.5m-60 0a60 60 0 1 0 120 0 60 60 0 1 0-120 0Z"
     fill="#5220AD"
     p-id="31777"
     id="path28" />
  <path
     d="M141.1 295.8m-60 0a60 60 0 1 0 120 0 60 60 0 1 0-120 0Z"
     fill="#5223AE"
     p-id="31778"
     id="path30" />
  <path
     d="M142.7 308m-60 0a60 60 0 1 0 120 0 60 60 0 1 0-120 0Z"
     fill="#5225AF"
     p-id="31779"
     id="path32" />
  <path
     d="M144.2 320.3m-60 0a60 60 0 1 0 120 0 60 60 0 1 0-120 0Z"
     fill="#5228B0"
     p-id="31780"
     id="path34" />
  <path
     d="M145.7 332.6m-60 0a60 60 0 1 0 120 0 60 60 0 1 0-120 0Z"
     fill="#522AB1"
     p-id="31781"
     id="path36" />
  <path
     d="M147.2 344.9m-60 0a60 60 0 1 0 120 0 60 60 0 1 0-120 0Z"
     fill="#522DB2"
     p-id="31782"
     id="path38" />
  <path
     d="M148.7 357.2m-60 0a60 60 0 1 0 120 0 60 60 0 1 0-120 0Z"
     fill="#532FB3"
     p-id="31783"
     id="path40" />
  <path
     d="M150.2 369.5m-60 0a60 60 0 1 0 120 0 60 60 0 1 0-120 0Z"
     fill="#5332B4"
     p-id="31784"
     id="path42" />
  <path
     d="M151.7 381.8m-60 0a60 60 0 1 0 120 0 60 60 0 1 0-120 0Z"
     fill="#5334B5"
     p-id="31785"
     id="path44" />
  <path
     d="M153.3 394.1m-60 0a60 60 0 1 0 120 0 60 60 0 1 0-120 0Z"
     fill="#5337B5"
     p-id="31786"
     id="path46" />
  <path
     d="M154.8 406.4m-60 0a60 60 0 1 0 120 0 60 60 0 1 0-120 0Z"
     fill="#5339B6"
     p-id="31787"
     id="path48" />
  <path
     d="M156.3 418.7m-60 0a60 60 0 1 0 120 0 60 60 0 1 0-120 0Z"
     fill="#533CB7"
     p-id="31788"
     id="path50" />
  <path
     d="M157.8 431m-60 0a60 60 0 1 0 120 0 60 60 0 1 0-120 0Z"
     fill="#533EB8"
     p-id="31789"
     id="path52" />
  <path
     d="M159.3 443.3m-60 0a60 60 0 1 0 120 0 60 60 0 1 0-120 0Z"
     fill="#5341B9"
     p-id="31790"
     id="path54" />
  <path
     d="M160.8 455.6m-60 0a60 60 0 1 0 120 0 60 60 0 1 0-120 0Z"
     fill="#5343BA"
     p-id="31791"
     id="path56" />
  <path
     d="M162.3 467.9m-60 0a60 60 0 1 0 120 0 60 60 0 1 0-120 0Z"
     fill="#5346BB"
     p-id="31792"
     id="path58" />
  <path
     d="M163.9 480.2m-60 0a60 60 0 1 0 120 0 60 60 0 1 0-120 0Z"
     fill="#5348BC"
     p-id="31793"
     id="path60" />
  <path
     d="M165.4 492.5m-60 0a60 60 0 1 0 120 0 60 60 0 1 0-120 0Z"
     fill="#534BBD"
     p-id="31794"
     id="path62" />
  <path
     d="M166.9 504.8m-60 0a60 60 0 1 0 120 0 60 60 0 1 0-120 0Z"
     fill="#534DBE"
     p-id="31795"
     id="path64" />
  <path
     d="M168.4 517.1m-60 0a60 60 0 1 0 120 0 60 60 0 1 0-120 0Z"
     fill="#5450BF"
     p-id="31796"
     id="path66" />
  <path
     d="M169.9 529.4m-60 0a60 60 0 1 0 120 0 60 60 0 1 0-120 0Z"
     fill="#5452C0"
     p-id="31797"
     id="path68" />
  <path
     d="M171.4 541.7m-60 0a60 60 0 1 0 120 0 60 60 0 1 0-120 0Z"
     fill="#5455C1"
     p-id="31798"
     id="path70" />
  <path
     d="M172.9 553.9m-60 0a60 60 0 1 0 120 0 60 60 0 1 0-120 0Z"
     fill="#5457C2"
     p-id="31799"
     id="path72" />
  <path
     d="M174.5 566.2m-60 0a60 60 0 1 0 120 0 60 60 0 1 0-120 0Z"
     fill="#545AC3"
     p-id="31800"
     id="path74" />
  <path
     d="M176 578.5m-60 0a60 60 0 1 0 120 0 60 60 0 1 0-120 0Z"
     fill="#545CC3"
     p-id="31801"
     id="path76" />
  <path
     d="M177.5 590.8m-60 0a60 60 0 1 0 120 0 60 60 0 1 0-120 0Z"
     fill="#545FC4"
     p-id="31802"
     id="path78" />
  <path
     d="M179 603.1m-60 0a60 60 0 1 0 120 0 60 60 0 1 0-120 0Z"
     fill="#5461C5"
     p-id="31803"
     id="path80" />
  <path
     d="M180.5 615.4m-60 0a60 60 0 1 0 120 0 60 60 0 1 0-120 0Z"
     fill="#5464C6"
     p-id="31804"
     id="path82" />
  <path
     d="M182 627.7m-60 0a60 60 0 1 0 120 0 60 60 0 1 0-120 0Z"
     fill="#5466C7"
     p-id="31805"
     id="path84" />
  <path
     d="M183.5 640m-60 0a60 60 0 1 0 120 0 60 60 0 1 0-120 0Z"
     fill="#5469C8"
     p-id="31806"
     id="path86" />
  <path
     d="M185.1 652.3m-60 0a60 60 0 1 0 120 0 60 60 0 1 0-120 0Z"
     fill="#546BC9"
     p-id="31807"
     id="path88" />
  <path
     d="M186.6 664.6m-60 0a60 60 0 1 0 120 0 60 60 0 1 0-120 0Z"
     fill="#546ECA"
     p-id="31808"
     id="path90" />
  <path
     d="M188.1 676.9m-60 0a60 60 0 1 0 120 0 60 60 0 1 0-120 0Z"
     fill="#5570CB"
     p-id="31809"
     id="path92" />
  <path
     d="M189.6 689.2m-60 0a60 60 0 1 0 120 0 60 60 0 1 0-120 0Z"
     fill="#5573CC"
     p-id="31810"
     id="path94" />
  <path
     d="M191.1 701.5m-60 0a60 60 0 1 0 120 0 60 60 0 1 0-120 0Z"
     fill="#5575CD"
     p-id="31811"
     id="path96" />
  <path
     d="M192.6 713.8m-60 0a60 60 0 1 0 120 0 60 60 0 1 0-120 0Z"
     fill="#5578CE"
     p-id="31812"
     id="path98" />
  <path
     d="M194.1 726.1m-60 0a60 60 0 1 0 120 0 60 60 0 1 0-120 0Z"
     fill="#557ACF"
     p-id="31813"
     id="path100" />
  <path
     d="M195.7 738.4m-60 0a60 60 0 1 0 120 0 60 60 0 1 0-120 0Z"
     fill="#557DD0"
     p-id="31814"
     id="path102" />
  <path
     d="M197.2 750.7m-60 0a60 60 0 1 0 120 0 60 60 0 1 0-120 0Z"
     fill="#557FD0"
     p-id="31815"
     id="path104" />
  <path
     d="M198.7 763m-60 0a60 60 0 1 0 120 0 60 60 0 1 0-120 0Z"
     fill="#5582D1"
     p-id="31816"
     id="path106" />
  <path
     d="M200.2 775.3m-60 0a60 60 0 1 0 120 0 60 60 0 1 0-120 0Z"
     fill="#5584D2"
     p-id="31817"
     id="path108" />
  <path
     d="M201.7 787.5m-60 0a60 60 0 1 0 120 0 60 60 0 1 0-120 0Z"
     fill="#5587D3"
     p-id="31818"
     id="path110" />
  <path
     d="M203.2 799.8m-60 0a60 60 0 1 0 120 0 60 60 0 1 0-120 0Z"
     fill="#5589D4"
     p-id="31819"
     id="path112" />
  <path
     d="M204.7 812.1m-60 0a60 60 0 1 0 120 0 60 60 0 1 0-120 0Z"
     fill="#558CD5"
     p-id="31820"
     id="path114" />
  <path
     d="M206.3 824.4m-60 0a60 60 0 1 0 120 0 60 60 0 1 0-120 0Z"
     fill="#568ED6"
     p-id="31821"
     id="path116" />
  <path
     d="M207.8 836.7m-60 0a60 60 0 1 0 120 0 60 60 0 1 0-120 0Z"
     fill="#5691D7"
     p-id="31822"
     id="path118" />
  <path
     d="M209.3 849m-60 0a60 60 0 1 0 120 0 60 60 0 1 0-120 0Z"
     fill="#5693D8"
     p-id="31823"
     id="path120" />
  <path
     d="M210.8 861.3m-60 0a60 60 0 1 0 120 0 60 60 0 1 0-120 0Z"
     fill="#5696D9"
     p-id="31824"
     id="path122" />
  <path
     d="M212.3 873.6m-60 0a60 60 0 1 0 120 0 60 60 0 1 0-120 0Z"
     fill="#5698DA"
     p-id="31825"
     id="path124" />
  <path
     d="M213.8 885.9m-60 0a60 60 0 1 0 120 0 60 60 0 1 0-120 0Z"
     fill="#569BDB"
     p-id="31826"
     id="path126" />
  <path
     d="M215.3 898.2m-60 0a60 60 0 1 0 120 0 60 60 0 1 0-120 0Z"
     fill="#569DDC"
     p-id="31827"
     id="path128" />
  <path
     d="M225.8 900.4m-60 0a60 60 0 1 0 120 0 60 60 0 1 0-120 0Z"
     fill="#56A0DD"
     p-id="31828"
     id="path130" />
  <path
     d="M237.5 899m-60 0a60 60 0 1 0 120 0 60 60 0 1 0-120 0Z"
     fill="#56A2DD"
     p-id="31829"
     id="path132" />
  <path
     d="M245.1 889.2m-60 0a60 60 0 1 0 120 0 60 60 0 1 0-120 0Z"
     fill="#56A5DE"
     p-id="31830"
     id="path134" />
  <path
     d="M252.7 879.4m-60 0a60 60 0 1 0 120 0 60 60 0 1 0-120 0Z"
     fill="#56A7DF"
     p-id="31831"
     id="path136" />
  <path
     d="M260.3 869.6m-60 0a60 60 0 1 0 120 0 60 60 0 1 0-120 0Z"
     fill="#56AAE0"
     p-id="31832"
     id="path138" />
  <path
     d="M267.9 859.8m-60 0a60 60 0 1 0 120 0 60 60 0 1 0-120 0Z"
     fill="#56ACE1"
     p-id="31833"
     id="path140" />
  <path
     d="M275.4 850m-60 0a60 60 0 1 0 120 0 60 60 0 1 0-120 0Z"
     fill="#57AFE2"
     p-id="31834"
     id="path142" />
  <path
     d="M283 840.2m-60 0a60 60 0 1 0 120 0 60 60 0 1 0-120 0Z"
     fill="#57B1E3"
     p-id="31835"
     id="path144" />
  <path
     d="M290.6 830.4m-60 0a60 60 0 1 0 120 0 60 60 0 1 0-120 0Z"
     fill="#57B4E4"
     p-id="31836"
     id="path146" />
  <path
     d="M298.2 820.6m-60 0a60 60 0 1 0 120 0 60 60 0 1 0-120 0Z"
     fill="#57B6E5"
     p-id="31837"
     id="path148" />
  <path
     d="M305.8 810.8m-60 0a60 60 0 1 0 120 0 60 60 0 1 0-120 0Z"
     fill="#57B9E6"
     p-id="31838"
     id="path150" />
  <path
     d="M313.4 801m-60 0a60 60 0 1 0 120 0 60 60 0 1 0-120 0Z"
     fill="#57BBE7"
     p-id="31839"
     id="path152" />
  <path
     d="M321 791.2m-60 0a60 60 0 1 0 120 0 60 60 0 1 0-120 0Z"
     fill="#57BEE8"
     p-id="31840"
     id="path154" />
  <path
     d="M328.5 781.4m-60 0a60 60 0 1 0 120 0 60 60 0 1 0-120 0Z"
     fill="#57C0E9"
     p-id="31841"
     id="path156" />
  <path
     d="M336.1 771.6m-60 0a60 60 0 1 0 120 0 60 60 0 1 0-120 0Z"
     fill="#57C3EA"
     p-id="31842"
     id="path158" />
  <path
     d="M343.7 761.9m-60 0a60 60 0 1 0 120 0 60 60 0 1 0-120 0Z"
     fill="#57C5EB"
     p-id="31843"
     id="path160" />
  <path
     d="M351.3 752.1m-60 0a60 60 0 1 0 120 0 60 60 0 1 0-120 0Z"
     fill="#57C8EB"
     p-id="31844"
     id="path162" />
  <path
     d="M358.9 742.3m-60 0a60 60 0 1 0 120 0 60 60 0 1 0-120 0Z"
     fill="#57CAEC"
     p-id="31845"
     id="path164" />
  <path
     d="M366.5 732.5m-60 0a60 60 0 1 0 120 0 60 60 0 1 0-120 0Z"
     fill="#57CDED"
     p-id="31846"
     id="path166" />
  <path
     d="M374.1 722.7m-60 0a60 60 0 1 0 120 0 60 60 0 1 0-120 0Z"
     fill="#58CFEE"
     p-id="31847"
     id="path168" />
  <path
     d="M381.6 712.9m-60 0a60 60 0 1 0 120 0 60 60 0 1 0-120 0Z"
     fill="#58D2EF"
     p-id="31848"
     id="path170" />
  <path
     d="M389.2 703.1m-60 0a60 60 0 1 0 120 0 60 60 0 1 0-120 0Z"
     fill="#58D4F0"
     p-id="31849"
     id="path172" />
  <path
     d="M396.8 693.3m-60 0a60 60 0 1 0 120 0 60 60 0 1 0-120 0Z"
     fill="#58D7F1"
     p-id="31850"
     id="path174" />
  <path
     d="M404.4 683.5m-60 0a60 60 0 1 0 120 0 60 60 0 1 0-120 0Z"
     fill="#58D9F2"
     p-id="31851"
     id="path176" />
  <path
     d="M412 673.7m-60 0a60 60 0 1 0 120 0 60 60 0 1 0-120 0Z"
     fill="#58DCF3"
     p-id="31852"
     id="path178" />
  <path
     d="M419.6 663.9m-60 0a60 60 0 1 0 120 0 60 60 0 1 0-120 0Z"
     fill="#58DEF4"
     p-id="31853"
     id="path180" />
  <path
     d="M427.2 654.1m-60 0a60 60 0 1 0 120 0 60 60 0 1 0-120 0Z"
     fill="#58E1F5"
     p-id="31854"
     id="path182" />
  <path
     d="M434.7 644.3m-60 0a60 60 0 1 0 120 0 60 60 0 1 0-120 0Z"
     fill="#58E3F6"
     p-id="31855"
     id="path184" />
  <path
     d="M442.3 634.5m-60 0a60 60 0 1 0 120 0 60 60 0 1 0-120 0Z"
     fill="#58E6F7"
     p-id="31856"
     id="path186" />
  <path
     d="M449.9 624.7m-60 0a60 60 0 1 0 120 0 60 60 0 1 0-120 0Z"
     fill="#58E8F8"
     p-id="31857"
     id="path188" />
  <path
     d="M457.5 615m-60 0a60 60 0 1 0 120 0 60 60 0 1 0-120 0Z"
     fill="#58EBF8"
     p-id="31858"
     id="path190" />
  <path
     d="M465.1 605.2m-60 0a60 60 0 1 0 120 0 60 60 0 1 0-120 0Z"
     fill="#59EDF9"
     p-id="31859"
     id="path192" />
  <path
     d="M472.7 595.4m-60 0a60 60 0 1 0 120 0 60 60 0 1 0-120 0Z"
     fill="#59F0FA"
     p-id="31860"
     id="path194" />
  <path
     d="M480.3 585.6m-60 0a60 60 0 1 0 120 0 60 60 0 1 0-120 0Z"
     fill="#59F2FB"
     p-id="31861"
     id="path196" />
  <path
     d="M487.8 575.8m-60 0a60 60 0 1 0 120 0 60 60 0 1 0-120 0Z"
     fill="#59F5FC"
     p-id="31862"
     id="path198" />
  <path
     d="M495.4 566m-60 0a60 60 0 1 0 120 0 60 60 0 1 0-120 0Z"
     fill="#59F7FD"
     p-id="31863"
     id="path200" />
  <path
     d="M503 556.2m-60 0a60 60 0 1 0 120 0 60 60 0 1 0-120 0Z"
     fill="#59FAFE"
     p-id="31864"
     id="path202" />
  <path
     d="M510.6 606.4c33 0 60-27 60-60s-27-60-60-60-60 27-60 60 26.9 60 60 60z"
     fill="#59FCFF"
     p-id="31865"
     id="path204" />
  <path
     d="M518.1 556.2m-60 0a60 60 0 1 0 120 0 60 60 0 1 0-120 0Z"
     fill="#59FAFF"
     p-id="31866"
     id="path206" />
  <path
     d="M525.6 566.1m-60 0a60 60 0 1 0 120 0 60 60 0 1 0-120 0Z"
     fill="#5AF8FF"
     p-id="31867"
     id="path208" />
  <path
     d="M533.2 576m-60 0a60 60 0 1 0 120 0 60 60 0 1 0-120 0Z"
     fill="#5AF7FF"
     p-id="31868"
     id="path210" />
  <path
     d="M540.7 585.8m-60 0a60 60 0 1 0 120 0 60 60 0 1 0-120 0Z"
     fill="#5BF5FF"
     p-id="31869"
     id="path212" />
  <path
     d="M548.2 595.7m-60 0a60 60 0 1 0 120 0 60 60 0 1 0-120 0Z"
     fill="#5BF3FF"
     p-id="31870"
     id="path214" />
  <path
     d="M555.8 605.6m-60 0a60 60 0 1 0 120 0 60 60 0 1 0-120 0Z"
     fill="#5CF1FF"
     p-id="31871"
     id="path216" />
  <path
     d="M563.3 615.4m-60 0a60 60 0 1 0 120 0 60 60 0 1 0-120 0Z"
     fill="#5CEFFF"
     p-id="31872"
     id="path218" />
  <path
     d="M570.8 625.3m-60 0a60 60 0 1 0 120 0 60 60 0 1 0-120 0Z"
     fill="#5DEEFF"
     p-id="31873"
     id="path220" />
  <path
     d="M578.3 635.1m-60 0a60 60 0 1 0 120 0 60 60 0 1 0-120 0Z"
     fill="#5DECFF"
     p-id="31874"
     id="path222" />
  <path
     d="M585.9 645m-60 0a60 60 0 1 0 120 0 60 60 0 1 0-120 0Z"
     fill="#5EEAFF"
     p-id="31875"
     id="path224" />
  <path
     d="M593.4 654.9m-60 0a60 60 0 1 0 120 0 60 60 0 1 0-120 0Z"
     fill="#5EE8FF"
     p-id="31876"
     id="path226" />
  <path
     d="M600.9 664.7m-60 0a60 60 0 1 0 120 0 60 60 0 1 0-120 0Z"
     fill="#5EE6FF"
     p-id="31877"
     id="path228" />
  <path
     d="M608.4 674.6m-60 0a60 60 0 1 0 120 0 60 60 0 1 0-120 0Z"
     fill="#5FE5FF"
     p-id="31878"
     id="path230" />
  <path
     d="M616 684.5m-60 0a60 60 0 1 0 120 0 60 60 0 1 0-120 0Z"
     fill="#5FE3FF"
     p-id="31879"
     id="path232" />
  <path
     d="M623.5 694.3m-60 0a60 60 0 1 0 120 0 60 60 0 1 0-120 0Z"
     fill="#60E1FF"
     p-id="31880"
     id="path234" />
  <path
     d="M631 704.2m-60 0a60 60 0 1 0 120 0 60 60 0 1 0-120 0Z"
     fill="#60DFFF"
     p-id="31881"
     id="path236" />
  <path
     d="M638.5 714m-60 0a60 60 0 1 0 120 0 60 60 0 1 0-120 0Z"
     fill="#61DEFF"
     p-id="31882"
     id="path238" />
  <path
     d="M646.1 723.9m-60 0a60 60 0 1 0 120 0 60 60 0 1 0-120 0Z"
     fill="#61DCFF"
     p-id="31883"
     id="path240" />
  <path
     d="M653.6 733.8m-60 0a60 60 0 1 0 120 0 60 60 0 1 0-120 0Z"
     fill="#62DAFF"
     p-id="31884"
     id="path242" />
  <path
     d="M661.1 743.6m-60 0a60 60 0 1 0 120 0 60 60 0 1 0-120 0Z"
     fill="#62D8FF"
     p-id="31885"
     id="path244" />
  <path
     d="M668.6 753.5m-60 0a60 60 0 1 0 120 0 60 60 0 1 0-120 0Z"
     fill="#63D6FF"
     p-id="31886"
     id="path246" />
  <path
     d="M676.2 763.4m-60 0a60 60 0 1 0 120 0 60 60 0 1 0-120 0Z"
     fill="#63D5FF"
     p-id="31887"
     id="path248" />
  <path
     d="M683.7 773.2m-60 0a60 60 0 1 0 120 0 60 60 0 1 0-120 0Z"
     fill="#63D3FF"
     p-id="31888"
     id="path250" />
  <path
     d="M691.2 783.1m-60 0a60 60 0 1 0 120 0 60 60 0 1 0-120 0Z"
     fill="#64D1FF"
     p-id="31889"
     id="path252" />
  <path
     d="M698.8 792.9m-60 0a60 60 0 1 0 120 0 60 60 0 1 0-120 0Z"
     fill="#64CFFF"
     p-id="31890"
     id="path254" />
  <path
     d="M706.3 802.8m-60 0a60 60 0 1 0 120 0 60 60 0 1 0-120 0Z"
     fill="#65CDFF"
     p-id="31891"
     id="path256" />
  <path
     d="M713.8 812.7m-60 0a60 60 0 1 0 120 0 60 60 0 1 0-120 0Z"
     fill="#65CCFF"
     p-id="31892"
     id="path258" />
  <path
     d="M721.3 822.5m-60 0a60 60 0 1 0 120 0 60 60 0 1 0-120 0Z"
     fill="#66CAFF"
     p-id="31893"
     id="path260" />
  <path
     d="M728.9 832.4m-60 0a60 60 0 1 0 120 0 60 60 0 1 0-120 0Z"
     fill="#66C8FF"
     p-id="31894"
     id="path262" />
  <path
     d="M736.4 842.3m-60 0a60 60 0 1 0 120 0 60 60 0 1 0-120 0Z"
     fill="#67C6FF"
     p-id="31895"
     id="path264" />
  <path
     d="M743.9 852.1m-60 0a60 60 0 1 0 120 0 60 60 0 1 0-120 0Z"
     fill="#67C4FF"
     p-id="31896"
     id="path266" />
  <path
     d="M751.4 862m-60 0a60 60 0 1 0 120 0 60 60 0 1 0-120 0Z"
     fill="#68C3FF"
     p-id="31897"
     id="path268" />
  <path
     d="M759 871.9m-60 0a60 60 0 1 0 120 0 60 60 0 1 0-120 0Z"
     fill="#68C1FF"
     p-id="31898"
     id="path270" />
  <path
     d="M766.5 881.7m-60 0a60 60 0 1 0 120 0 60 60 0 1 0-120 0Z"
     fill="#68BFFF"
     p-id="31899"
     id="path272" />
  <path
     d="M774 891.6m-60 0a60 60 0 1 0 120 0 60 60 0 1 0-120 0Z"
     fill="#69BDFF"
     p-id="31900"
     id="path274" />
  <path
     d="M782.1 900.4m-60 0a60 60 0 1 0 120 0 60 60 0 1 0-120 0Z"
     fill="#69BBFF"
     p-id="31901"
     id="path276" />
  <path
     d="M794.5 900.4m-60 0a60 60 0 1 0 120 0 60 60 0 1 0-120 0Z"
     fill="#6ABAFF"
     p-id="31902"
     id="path278" />
  <path
     d="M805.8 899.1m-60 0a60 60 0 1 0 120 0 60 60 0 1 0-120 0Z"
     fill="#6AB8FF"
     p-id="31903"
     id="path280" />
  <path
     d="M807.3 886.8m-60 0a60 60 0 1 0 120 0 60 60 0 1 0-120 0Z"
     fill="#6BB6FF"
     p-id="31904"
     id="path282" />
  <path
     d="M808.9 874.5m-60 0a60 60 0 1 0 120 0 60 60 0 1 0-120 0Z"
     fill="#6BB4FF"
     p-id="31905"
     id="path284" />
  <path
     d="M810.4 862.2m-60 0a60 60 0 1 0 120 0 60 60 0 1 0-120 0Z"
     fill="#6CB3FF"
     p-id="31906"
     id="path286" />
  <path
     d="M812 849.9m-60 0a60 60 0 1 0 120 0 60 60 0 1 0-120 0Z"
     fill="#6CB1FF"
     p-id="31907"
     id="path288" />
  <path
     d="M813.6 837.6m-60 0a60 60 0 1 0 120 0 60 60 0 1 0-120 0Z"
     fill="#6DAFFF"
     p-id="31908"
     id="path290" />
  <path
     d="M815.1 825.2m-60 0a60 60 0 1 0 120 0 60 60 0 1 0-120 0Z"
     fill="#6DADFF"
     p-id="31909"
     id="path292" />
  <path
     d="M816.7 812.9m-60 0a60 60 0 1 0 120 0 60 60 0 1 0-120 0Z"
     fill="#6DABFF"
     p-id="31910"
     id="path294" />
  <path
     d="M818.2 800.6m-60 0a60 60 0 1 0 120 0 60 60 0 1 0-120 0Z"
     fill="#6EAAFF"
     p-id="31911"
     id="path296" />
  <path
     d="M819.8 788.3m-60 0a60 60 0 1 0 120 0 60 60 0 1 0-120 0Z"
     fill="#6EA8FF"
     p-id="31912"
     id="path298" />
  <path
     d="M821.4 776m-60 0a60 60 0 1 0 120 0 60 60 0 1 0-120 0Z"
     fill="#6FA6FF"
     p-id="31913"
     id="path300" />
  <path
     d="M822.9 763.7m-60 0a60 60 0 1 0 120 0 60 60 0 1 0-120 0Z"
     fill="#6FA4FF"
     p-id="31914"
     id="path302" />
  <path
     d="M824.5 751.4m-60 0a60 60 0 1 0 120 0 60 60 0 1 0-120 0Z"
     fill="#70A2FF"
     p-id="31915"
     id="path304" />
  <path
     d="M826 739.1m-60 0a60 60 0 1 0 120 0 60 60 0 1 0-120 0Z"
     fill="#70A1FF"
     p-id="31916"
     id="path306" />
  <path
     d="M827.6 726.8m-60 0a60 60 0 1 0 120 0 60 60 0 1 0-120 0Z"
     fill="#719FFF"
     p-id="31917"
     id="path308" />
  <path
     d="M829.2 714.5m-60 0a60 60 0 1 0 120 0 60 60 0 1 0-120 0Z"
     fill="#719DFF"
     p-id="31918"
     id="path310" />
  <path
     d="M830.7 702.2m-60 0a60 60 0 1 0 120 0 60 60 0 1 0-120 0Z"
     fill="#729BFF"
     p-id="31919"
     id="path312" />
  <path
     d="M832.3 689.9m-60 0a60 60 0 1 0 120 0 60 60 0 1 0-120 0Z"
     fill="#7299FF"
     p-id="31920"
     id="path314" />
  <path
     d="M833.8 677.6m-60 0a60 60 0 1 0 120 0 60 60 0 1 0-120 0Z"
     fill="#7398FF"
     p-id="31921"
     id="path316" />
  <path
     d="M835.4 665.2m-60 0a60 60 0 1 0 120 0 60 60 0 1 0-120 0Z"
     fill="#7396FF"
     p-id="31922"
     id="path318" />
  <path
     d="M837 652.9m-60 0a60 60 0 1 0 120 0 60 60 0 1 0-120 0Z"
     fill="#7394FF"
     p-id="31923"
     id="path320" />
  <path
     d="M838.5 640.6m-60 0a60 60 0 1 0 120 0 60 60 0 1 0-120 0Z"
     fill="#7492FF"
     p-id="31924"
     id="path322" />
  <path
     d="M840.1 628.3m-60 0a60 60 0 1 0 120 0 60 60 0 1 0-120 0Z"
     fill="#7490FF"
     p-id="31925"
     id="path324" />
  <path
     d="M841.6 616m-60 0a60 60 0 1 0 120 0 60 60 0 1 0-120 0Z"
     fill="#758FFF"
     p-id="31926"
     id="path326" />
  <path
     d="M843.2 603.7m-60 0a60 60 0 1 0 120 0 60 60 0 1 0-120 0Z"
     fill="#758DFF"
     p-id="31927"
     id="path328" />
  <path
     d="M844.8 591.4m-60 0a60 60 0 1 0 120 0 60 60 0 1 0-120 0Z"
     fill="#768BFF"
     p-id="31928"
     id="path330" />
  <path
     d="M846.3 579.1m-60 0a60 60 0 1 0 120 0 60 60 0 1 0-120 0Z"
     fill="#7689FF"
     p-id="31929"
     id="path332" />
  <path
     d="M847.9 566.8m-60 0a60 60 0 1 0 120 0 60 60 0 1 0-120 0Z"
     fill="#7788FF"
     p-id="31930"
     id="path334" />
  <path
     d="M849.4 554.5m-60 0a60 60 0 1 0 120 0 60 60 0 1 0-120 0Z"
     fill="#7786FF"
     p-id="31931"
     id="path336" />
  <path
     d="M851 542.2m-60 0a60 60 0 1 0 120 0 60 60 0 1 0-120 0Z"
     fill="#7884FF"
     p-id="31932"
     id="path338" />
  <path
     d="M852.6 529.9m-60 0a60 60 0 1 0 120 0 60 60 0 1 0-120 0Z"
     fill="#7882FF"
     p-id="31933"
     id="path340" />
  <path
     d="M854.1 517.5m-60 0a60 60 0 1 0 120 0 60 60 0 1 0-120 0Z"
     fill="#7880FF"
     p-id="31934"
     id="path342" />
  <path
     d="M855.7 505.2m-60 0a60 60 0 1 0 120 0 60 60 0 1 0-120 0Z"
     fill="#797FFF"
     p-id="31935"
     id="path344" />
  <path
     d="M857.2 492.9m-60 0a60 60 0 1 0 120 0 60 60 0 1 0-120 0Z"
     fill="#797DFF"
     p-id="31936"
     id="path346" />
  <path
     d="M858.8 480.6m-60 0a60 60 0 1 0 120 0 60 60 0 1 0-120 0Z"
     fill="#7A7BFF"
     p-id="31937"
     id="path348" />
  <path
     d="M860.4 468.3m-60 0a60 60 0 1 0 120 0 60 60 0 1 0-120 0Z"
     fill="#7A79FF"
     p-id="31938"
     id="path350" />
  <path
     d="M861.9 456m-60 0a60 60 0 1 0 120 0 60 60 0 1 0-120 0Z"
     fill="#7B77FF"
     p-id="31939"
     id="path352" />
  <path
     d="M863.5 443.7m-60 0a60 60 0 1 0 120 0 60 60 0 1 0-120 0Z"
     fill="#7B76FF"
     p-id="31940"
     id="path354" />
  <path
     d="M865 431.4m-60 0a60 60 0 1 0 120 0 60 60 0 1 0-120 0Z"
     fill="#7C74FF"
     p-id="31941"
     id="path356" />
  <path
     d="M866.6 419.1m-60 0a60 60 0 1 0 120 0 60 60 0 1 0-120 0Z"
     fill="#7C72FF"
     p-id="31942"
     id="path358" />
  <path
     d="M868.2 406.8m-60 0a60 60 0 1 0 120 0 60 60 0 1 0-120 0Z"
     fill="#7D70FF"
     p-id="31943"
     id="path360" />
  <path
     d="M869.7 394.5m-60 0a60 60 0 1 0 120 0 60 60 0 1 0-120 0Z"
     fill="#7D6EFF"
     p-id="31944"
     id="path362" />
  <path
     d="M871.3 382.2m-60 0a60 60 0 1 0 120 0 60 60 0 1 0-120 0Z"
     fill="#7D6DFF"
     p-id="31945"
     id="path364" />
  <path
     d="M872.8 369.9m-60 0a60 60 0 1 0 120 0 60 60 0 1 0-120 0Z"
     fill="#7E6BFF"
     p-id="31946"
     id="path366" />
  <path
     d="M874.4 357.5m-60 0a60 60 0 1 0 120 0 60 60 0 1 0-120 0Z"
     fill="#7E69FF"
     p-id="31947"
     id="path368" />
  <path
     d="M876 345.2m-60 0a60 60 0 1 0 120 0 60 60 0 1 0-120 0Z"
     fill="#7F67FF"
     p-id="31948"
     id="path370" />
  <path
     d="M877.5 332.9m-60 0a60 60 0 1 0 120 0 60 60 0 1 0-120 0Z"
     fill="#7F65FF"
     p-id="31949"
     id="path372" />
  <path
     d="M879.1 320.6m-60 0a60 60 0 1 0 120 0 60 60 0 1 0-120 0Z"
     fill="#8064FF"
     p-id="31950"
     id="path374" />
  <path
     d="M880.7 308.3m-60 0a60 60 0 1 0 120 0 60 60 0 1 0-120 0Z"
     fill="#8062FF"
     p-id="31951"
     id="path376" />
  <path
     d="M882.2 296m-60 0a60 60 0 1 0 120 0 60 60 0 1 0-120 0Z"
     fill="#8160FF"
     p-id="31952"
     id="path378" />
  <path
     d="M883.8 283.7m-60 0a60 60 0 1 0 120 0 60 60 0 1 0-120 0Z"
     fill="#815EFF"
     p-id="31953"
     id="path380" />
  <path
     d="M885.3 271.4m-60 0a60 60 0 1 0 120 0 60 60 0 1 0-120 0Z"
     fill="#825DFF"
     p-id="31954"
     id="path382" />
  <path
     d="M886.9 259.1m-60 0a60 60 0 1 0 120 0 60 60 0 1 0-120 0Z"
     fill="#825BFF"
     p-id="31955"
     id="path384" />
  <path
     d="M888.5 246.8m-60 0a60 60 0 1 0 120 0 60 60 0 1 0-120 0Z"
     fill="#8259FF"
     p-id="31956"
     id="path386" />
  <path
     d="M890 234.5m-60 0a60 60 0 1 0 120 0 60 60 0 1 0-120 0Z"
     fill="#8357FF"
     p-id="31957"
     id="path388" />
  <path
     d="M891.6 222.2m-60 0a60 60 0 1 0 120 0 60 60 0 1 0-120 0Z"
     fill="#8355FF"
     p-id="31958"
     id="path390" />
  <path
     d="M893.1 209.8m-60 0a60 60 0 1 0 120 0 60 60 0 1 0-120 0Z"
     fill="#8454FF"
     p-id="31959"
     id="path392" />
  <path
     d="M894.7 197.5m-60 0a60 60 0 1 0 120 0 60 60 0 1 0-120 0Z"
     fill="#8452FF"
     p-id="31960"
     id="path394" />
  <path
     d="M896.3 185.2m-60 0a60 60 0 1 0 120 0 60 60 0 1 0-120 0Z"
     fill="#8550FF"
     p-id="31961"
     id="path396" />
  <path
     d="M897.8 172.9m-60 0a60 60 0 1 0 120 0 60 60 0 1 0-120 0Z"
     fill="#854EFF"
     p-id="31962"
     id="path398" />
  <path
     d="M899.4 160.6m-60 0a60 60 0 1 0 120 0 60 60 0 1 0-120 0Z"
     fill="#864CFF"
     p-id="31963"
     id="path400" />
  <path
     d="M900.9 148.3m-60 0a60 60 0 1 0 120 0 60 60 0 1 0-120 0Z"
     fill="#864BFF"
     p-id="31964"
     id="path402" />
  <path
     d="M902.5 136m-60 0a60 60 0 1 0 120 0 60 60 0 1 0-120 0Z"
     fill="#8749FF"
     p-id="31965"
     id="path404" />
  <path
     d="M904.1 183.7c33 0 60-27 60-60s-27-60-60-60-60 27-60 60 26.9 60 60 60z"
     fill="#8747FF"
     p-id="31966"
     id="path406" />
</svg>
